<svg xmlns="http://www.w3.org/2000/svg" xmlns:xlink="http://www.w3.org/1999/xlink" contentStyleType="text/css" data-diagram-type="DESCRIPTION" height="1064px" preserveAspectRatio="none" style="width:553px;height:1064px;background:#FFFFFF;" version="1.1" viewBox="0 0 553 1064" width="553px" zoomAndPan="magnify"><defs/><g><!--cluster E-Commerce System--><g class="cluster" data-entity="E-Commerce System" data-source-line="7" data-uid="ent0006" id="cluster_E-Commerce System"><rect fill="none" height="1051" rx="2.5" ry="2.5" style="stroke:#181818;stroke-width:1;" width="265.29" x="202.29" y="7"/><text fill="#000000" font-family="sans-serif" font-size="14" font-weight="bold" lengthAdjust="spacing" textLength="161.8271" x="254.0214" y="21.9951">E-Commerce System</text></g><g class="entity" data-entity="Search for Items" data-source-line="8" data-uid="ent0007" id="entity_Search for Items"><ellipse cx="334.9408" cy="139.0002" fill="#F1F1F1" rx="78.8508" ry="18.1702" style="stroke:#181818;stroke-width:0.5;"/><text fill="#000000" font-family="sans-serif" font-size="14" lengthAdjust="spacing" textLength="115.7188" x="274.9711" y="142.5084">Search for Items</text></g><g class="entity" data-entity="Checkout" data-source-line="9" data-uid="ent0009" id="entity_Checkout"><ellipse cx="334.9353" cy="339.9971" fill="#F1F1F1" rx="59.3153" ry="14.7671" style="stroke:#181818;stroke-width:0.5;"/><text fill="#000000" font-family="sans-serif" font-size="14" lengthAdjust="spacing" textLength="65.9941" x="298.9383" y="343.7446">Checkout</text></g><g class="entity" data-entity="Modify Cart" data-source-line="10" data-uid="ent0011" id="entity_Modify Cart"><ellipse cx="334.9363" cy="275.0013" fill="#F1F1F1" rx="65.6563" ry="15.5313" style="stroke:#181818;stroke-width:0.5;"/><text fill="#000000" font-family="sans-serif" font-size="14" lengthAdjust="spacing" textLength="80.6846" x="291.594" y="278.7488">Modify Cart</text></g><g class="entity" data-entity="View Receipt" data-source-line="11" data-uid="ent0013" id="entity_View Receipt"><ellipse cx="334.9413" cy="207.9983" fill="#F1F1F1" rx="69.2913" ry="16.2583" style="stroke:#181818;stroke-width:0.5;"/><text fill="#000000" font-family="sans-serif" font-size="14" lengthAdjust="spacing" textLength="90.8975" x="286.4925" y="211.7458">View Receipt</text></g><g class="entity" data-entity="Create Account" data-source-line="12" data-uid="ent0015" id="entity_Create Account"><ellipse cx="334.9445" cy="704.9989" fill="#F1F1F1" rx="75.7945" ry="17.5589" style="stroke:#181818;stroke-width:0.5;"/><text fill="#000000" font-family="sans-serif" font-size="14" lengthAdjust="spacing" textLength="108.0488" x="277.9201" y="708.7465">Create Account</text></g><g class="entity" data-entity="Login" data-source-line="13" data-uid="ent0017" id="entity_Login"><ellipse cx="334.9441" cy="637.9957" fill="#F1F1F1" rx="38.4641" ry="14.5557" style="stroke:#181818;stroke-width:0.5;"/><text fill="#000000" font-family="sans-serif" font-size="14" lengthAdjust="spacing" textLength="38.0146" x="314.07" y="641.4506">Login</text></g><g class="entity" data-entity="Promote User to Admin" data-source-line="14" data-uid="ent0019" id="entity_Promote User to Admin"><ellipse cx="334.9432" cy="565.9966" fill="#F1F1F1" rx="99.6332" ry="22.3266" style="stroke:#181818;stroke-width:0.5;"/><text fill="#000000" font-family="sans-serif" font-size="14" lengthAdjust="spacing" textLength="163.249" x="253.3187" y="568.8433">Promote User to Admin</text></g><g class="entity" data-entity="View Sales Report" data-source-line="15" data-uid="ent0021" id="entity_View Sales Report"><ellipse cx="334.9405" cy="490.0001" fill="#F1F1F1" rx="83.4505" ry="19.0901" style="stroke:#181818;stroke-width:0.5;"/><text fill="#000000" font-family="sans-serif" font-size="14" lengthAdjust="spacing" textLength="126.7314" x="271.1332" y="492.9972">View Sales Report</text></g><g class="entity" data-entity="CSV Export Sales Report" data-source-line="16" data-uid="ent0023" id="entity_CSV Export Sales Report"><ellipse cx="334.9392" cy="412.9978" fill="#F1F1F1" rx="103.4892" ry="23.0978" style="stroke:#181818;stroke-width:0.5;"/><text fill="#000000" font-family="sans-serif" font-size="14" lengthAdjust="spacing" textLength="171.7188" x="249.0798" y="415.8445">CSV Export Sales Report</text></g><g class="entity" data-entity="Create New Items for Sale" data-source-line="17" data-uid="ent0025" id="entity_Create New Items for Sale"><ellipse cx="334.9416" cy="1018.0043" fill="#F1F1F1" rx="108.9216" ry="24.1843" style="stroke:#181818;stroke-width:0.5;"/><text fill="#000000" font-family="sans-serif" font-size="14" lengthAdjust="spacing" textLength="183.5449" x="243.1691" y="1020.851">Create New Items for Sale</text></g><g class="entity" data-entity="Update an Item" data-source-line="18" data-uid="ent0027" id="entity_Update an Item"><ellipse cx="334.9377" cy="940.9975" fill="#F1F1F1" rx="76.1377" ry="17.6275" style="stroke:#181818;stroke-width:0.5;"/><text fill="#000000" font-family="sans-serif" font-size="14" lengthAdjust="spacing" textLength="108.9238" x="277.4758" y="944.7451">Update an Item</text></g><g class="entity" data-entity="Remove Items for Sale" data-source-line="19" data-uid="ent0029" id="entity_Remove Items for Sale"><ellipse cx="334.9399" cy="865.998" fill="#F1F1F1" rx="97.7899" ry="21.958" style="stroke:#181818;stroke-width:0.5;"/><text fill="#000000" font-family="sans-serif" font-size="14" lengthAdjust="spacing" textLength="159.1748" x="255.3525" y="868.8447">Remove Items for Sale</text></g><g class="entity" data-entity="View Receipts for Sold Items" data-source-line="20" data-uid="ent0031" id="entity_View Receipts for Sold Items"><ellipse cx="334.9359" cy="782.9992" fill="#F1F1F1" rx="116.6459" ry="25.7292" style="stroke:#181818;stroke-width:0.5;"/><text fill="#000000" font-family="sans-serif" font-size="14" lengthAdjust="spacing" textLength="200.1836" x="234.8441" y="785.8459">View Receipts for Sold Items</text></g><g class="entity" data-entity="Send Receipt via Email" data-source-line="21" data-uid="ent0033" id="entity_Send Receipt via Email"><ellipse cx="334.9404" cy="64.0041" fill="#F1F1F1" rx="98.6704" ry="22.1341" style="stroke:#181818;stroke-width:0.5;"/><text fill="#000000" font-family="sans-serif" font-size="14" lengthAdjust="spacing" textLength="161.123" x="254.3789" y="66.8508">Send Receipt via Email</text></g><!--entity User--><g class="entity" data-entity="User" data-source-line="2" data-uid="ent0002" id="entity_User"><ellipse cx="82.1451" cy="189.35" fill="#F1F1F1" rx="8" ry="8" style="stroke:#181818;stroke-width:0.5;"/><path d="M82.1451,197.35 L82.1451,224.35 M69.1451,205.35 L95.1451,205.35 M82.1451,224.35 L69.1451,239.35 M82.1451,224.35 L95.1451,239.35" fill="none" style="stroke:#181818;stroke-width:0.5;"/><text fill="#000000" font-family="sans-serif" font-size="14" lengthAdjust="spacing" textLength="31.9102" x="66.19" y="253.8451">User</text></g><!--entity Admin--><g class="entity" data-entity="Admin" data-source-line="3" data-uid="ent0003" id="entity_Admin"><ellipse cx="82.1421" cy="675.35" fill="#F1F1F1" rx="8" ry="8" style="stroke:#181818;stroke-width:0.5;"/><path d="M82.1421,683.35 L82.1421,710.35 M69.1421,691.35 L95.1421,691.35 M82.1421,710.35 L69.1421,725.35 M82.1421,710.35 L95.1421,725.35" fill="none" style="stroke:#181818;stroke-width:0.5;"/><text fill="#000000" font-family="sans-serif" font-size="14" lengthAdjust="spacing" textLength="44.8643" x="59.71" y="739.8451">Admin</text></g><!--entity Bank--><g class="entity" data-entity="Bank" data-source-line="4" data-uid="ent0004" id="entity_Bank"><ellipse cx="529.162" cy="310.35" fill="#F1F1F1" rx="8" ry="8" style="stroke:#181818;stroke-width:0.5;"/><path d="M529.162,318.35 L529.162,345.35 M516.162,326.35 L542.162,326.35 M529.162,345.35 L516.162,360.35 M529.162,345.35 L542.162,360.35" fill="none" style="stroke:#181818;stroke-width:0.5;"/><text fill="#000000" font-family="sans-serif" font-size="14" lengthAdjust="spacing" textLength="35.1641" x="511.58" y="374.8451">Bank</text></g><!--entity CCP--><g class="entity" data-entity="CCP" data-source-line="5" data-uid="ent0005" id="entity_CCP"><ellipse cx="82.1455" cy="310.35" fill="#F1F1F1" rx="8" ry="8" style="stroke:#181818;stroke-width:0.5;"/><path d="M82.1455,318.35 L82.1455,345.35 M69.1455,326.35 L95.1455,326.35 M82.1455,345.35 L69.1455,360.35 M82.1455,345.35 L95.1455,360.35" fill="none" style="stroke:#181818;stroke-width:0.5;"/><text fill="#000000" font-family="sans-serif" font-size="14" lengthAdjust="spacing" textLength="152.291" x="6" y="374.8451">Credit Card Processor</text></g><!--link User to Search for Items--><g class="link" data-entity-1="User" data-entity-2="Search for Items" data-source-line="8" data-uid="lnk8" id="link_User_Search for Items"><path d="M98.36,212.05 C119.54,202.56 159.26,185.42 194.29,174 C220.91,165.32 245.1213,158.9221 270.5113,152.9121" fill="none" id="User-to-Search for Items" style="stroke:#181818;stroke-width:1;"/><polygon fill="#181818" points="276.35,151.53,266.6706,149.7106,271.4845,152.6817,268.5134,157.4955,276.35,151.53" style="stroke:#181818;stroke-width:1;"/></g><!--link User to Checkout--><g class="link" data-entity-1="User" data-entity-2="Checkout" data-source-line="9" data-uid="lnk10" id="link_User_Checkout"><path d="M98.48,232.72 C123.77,255.09 173.48,297.94 194.29,308 C221.39,321.1 248.1579,327.937 275.0879,332.597" fill="none" id="User-to-Checkout" style="stroke:#181818;stroke-width:1;"/><polygon fill="#181818" points="281,333.62,272.8138,328.144,276.0732,332.7675,271.4498,336.0269,281,333.62" style="stroke:#181818;stroke-width:1;"/></g><!--link User to Modify Cart--><g class="link" data-entity-1="User" data-entity-2="Modify Cart" data-source-line="10" data-uid="lnk12" id="link_User_Modify Cart"><path d="M98.46,222.42 C134.99,230.58 222.6342,250.1424 280.2242,263.0024" fill="none" id="User-to-Modify Cart" style="stroke:#181818;stroke-width:1;"/><polygon fill="#181818" points="286.08,264.31,278.1681,258.4447,281.2002,263.2203,276.4246,266.2524,286.08,264.31" style="stroke:#181818;stroke-width:1;"/></g><!--link User to View Receipt--><g class="link" data-entity-1="User" data-entity-2="View Receipt" data-source-line="11" data-uid="lnk14" id="link_User_View Receipt"><path d="M98.46,218.33 C131.05,216.9 203.0157,213.7424 260.3457,211.2324" fill="none" id="User-to-View Receipt" style="stroke:#181818;stroke-width:1;"/><polygon fill="#181818" points="266.34,210.97,257.1737,207.3675,261.3448,211.1887,257.5236,215.3598,266.34,210.97" style="stroke:#181818;stroke-width:1;"/></g><!--link Admin to Create Account--><g class="link" data-entity-1="Admin" data-entity-2="Create Account" data-source-line="12" data-uid="lnk16" id="link_Admin_Create Account"><path d="M104.96,705 C138.93,705 200.03,705 252.85,705" fill="none" id="Admin-to-Create Account" style="stroke:#181818;stroke-width:1;"/><polygon fill="#181818" points="258.85,705,249.85,701,253.85,705,249.85,709,258.85,705" style="stroke:#181818;stroke-width:1;"/></g><!--link Admin to Login--><g class="link" data-entity-1="Admin" data-entity-2="Login" data-source-line="13" data-uid="lnk18" id="link_Admin_Login"><path d="M104.72,697.64 C127,690.18 162.86,678.54 194.29,670 C230.3,660.22 266.1807,652.1657 294.5907,646.1357" fill="none" id="Admin-to-Login" style="stroke:#181818;stroke-width:1;"/><polygon fill="#181818" points="300.46,644.89,290.8256,642.8458,295.569,645.9281,292.4866,650.6715,300.46,644.89" style="stroke:#181818;stroke-width:1;"/></g><!--link Admin to Promote User to Admin--><g class="link" data-entity-1="Admin" data-entity-2="Promote User to Admin" data-source-line="14" data-uid="lnk20" id="link_Admin_Promote User to Admin"><path d="M105.01,679.95 C125.86,657.54 159.2,625.32 194.29,606 C214.17,595.05 231.5589,588.466 253.2289,582.446" fill="none" id="Admin-to-Promote User to Admin" style="stroke:#181818;stroke-width:1;"/><polygon fill="#181818" points="259.01,580.84,249.2677,579.395,254.1924,582.1783,251.4091,587.103,259.01,580.84" style="stroke:#181818;stroke-width:1;"/></g><!--link Admin to View Sales Report--><g class="link" data-entity-1="Admin" data-entity-2="View Sales Report" data-source-line="15" data-uid="lnk22" id="link_Admin_View Sales Report"><path d="M97.01,666.4 C113.74,625.38 145.8,561.63 194.29,526 C213.16,512.14 231.027,504.9634 253.527,499.7134" fill="none" id="Admin-to-View Sales Report" style="stroke:#181818;stroke-width:1;"/><polygon fill="#181818" points="259.37,498.35,249.6965,496.4997,254.5008,499.4861,251.5143,504.2904,259.37,498.35" style="stroke:#181818;stroke-width:1;"/></g><!--link Admin to CSV Export Sales Report--><g class="link" data-entity-1="Admin" data-entity-2="CSV Export Sales Report" data-source-line="16" data-uid="lnk24" id="link_Admin_CSV Export Sales Report"><path d="M89.57,666.51 C100.83,611.17 129.42,509.57 194.29,453 C209.12,440.07 222.1458,433.1081 241.0558,427.1681" fill="none" id="Admin-to-CSV Export Sales Report" style="stroke:#181818;stroke-width:1;"/><polygon fill="#181818" points="246.78,425.37,236.9949,424.251,242.0098,426.8684,239.3924,431.8833,246.78,425.37" style="stroke:#181818;stroke-width:1;"/></g><!--link Admin to Create New Items for Sale--><g class="link" data-entity-1="Admin" data-entity-2="Create New Items for Sale" data-source-line="17" data-uid="lnk26" id="link_Admin_Create New Items for Sale"><path d="M88.29,743.29 C98.19,801.86 125.37,913.47 194.29,976 C208.54,988.93 220.9541,995.9641 239.3541,1002.1641" fill="none" id="Admin-to-Create New Items for Sale" style="stroke:#181818;stroke-width:1;"/><polygon fill="#181818" points="245.04,1004.08,237.7884,997.4156,240.3018,1002.4834,235.2339,1004.9967,245.04,1004.08" style="stroke:#181818;stroke-width:1;"/></g><!--link Admin to Update an Item--><g class="link" data-entity-1="Admin" data-entity-2="Update an Item" data-source-line="18" data-uid="lnk28" id="link_Admin_Update an Item"><path d="M94.26,743.57 C109.38,789.06 140.86,863.71 194.29,905 C214.2,920.39 234.1301,927.9975 258.1301,933.0775" fill="none" id="Admin-to-Update an Item" style="stroke:#181818;stroke-width:1;"/><polygon fill="#181818" points="264,934.32,256.0234,928.543,259.1084,933.2846,254.3668,936.3696,264,934.32" style="stroke:#181818;stroke-width:1;"/></g><!--link Admin to Remove Items for Sale--><g class="link" data-entity-1="Admin" data-entity-2="Remove Items for Sale" data-source-line="19" data-uid="lnk30" id="link_Admin_Remove Items for Sale"><path d="M105.01,737.4 C125.14,764.83 157.41,803.21 194.29,826 C213.39,837.8 230.2989,844.624 251.7889,850.594" fill="none" id="Admin-to-Remove Items for Sale" style="stroke:#181818;stroke-width:1;"/><polygon fill="#181818" points="257.57,852.2,249.9691,845.937,252.7524,850.8617,247.8277,853.645,257.57,852.2" style="stroke:#181818;stroke-width:1;"/></g><!--link Admin to View Receipts for Sold Items--><g class="link" data-entity-1="Admin" data-entity-2="View Receipts for Sold Items" data-source-line="20" data-uid="lnk32" id="link_Admin_View Receipts for Sold Items"><path d="M104.86,711.88 C127.25,718.97 163.19,730.32 194.29,740 C217.42,747.2 236.9949,753.2569 259.6349,760.2169" fill="none" id="Admin-to-View Receipts for Sold Items" style="stroke:#181818;stroke-width:1;"/><polygon fill="#181818" points="265.37,761.98,257.9427,755.512,260.5907,760.5108,255.5919,763.1588,265.37,761.98" style="stroke:#181818;stroke-width:1;"/></g><!--link CCP to Checkout--><g class="link" data-entity-1="CCP" data-entity-2="Checkout" data-source-line="22" data-uid="lnk34" id="link_CCP_Checkout"><path d="M158.73,340 C196.09,340 234.48,340 269.24,340" fill="none" id="CCP-to-Checkout" style="stroke:#181818;stroke-width:1;"/><polygon fill="#181818" points="275.24,340,266.24,336,270.24,340,266.24,344,275.24,340" style="stroke:#181818;stroke-width:1;"/></g><!--link Checkout to Bank--><g class="link" data-entity-1="Checkout" data-entity-2="Bank" data-source-line="23" data-uid="lnk35" id="link_Checkout_Bank"><path d="M394.66,340 C434.85,340 479.37,340 505.22,340" fill="none" id="Checkout-to-Bank" style="stroke:#181818;stroke-width:1;"/><polygon fill="#181818" points="511.22,340,502.22,336,506.22,340,502.22,344,511.22,340" style="stroke:#181818;stroke-width:1;"/></g><!--SRC=[XP91RiCW44NtFiN8gtRXArHAaHULsYgAbUmHZ6qKmrW3IHjLlNk1E6eK8iKhFE_pFymmOHyW4B0PnW3QCAfWo5LI1MBOUkHbkTBMNCglqksNPIqOjGaW96jOCodqdhW6wK68TLKbF-c62Q5k6q7M8Yk4xkG3sXf-AeXVIe6cUO6d3YMh4Vfe_1O5_lc6Yn7LdWxXjlv1slIdT8W2xGn-mGOLcdbX-IQB7wCC22kbwE1A_4w3SKKrtj9It9KpOkioAbGvjvCJ-fW-4zy9xtRGVYVqG7S-v6Vqoqt9xKax2kLsraafNHOMU8EMZlZ8vBfXYumcVJsFE2QdBn8u6WcjbMOwmpZrUxFw_yqqlw3VFm00]--></g></svg>
