<svg xmlns="http://www.w3.org/2000/svg" xmlns:xlink="http://www.w3.org/1999/xlink" contentStyleType="text/css" data-diagram-type="DESCRIPTION" height="1066px" preserveAspectRatio="none" style="width:564px;height:1066px;background:#FFFFFF;" version="1.1" viewBox="0 0 564 1066" width="564px" zoomAndPan="magnify"><defs/><g><!--cluster E-Commerce System--><g class="cluster" data-entity="E-Commerce System" data-source-line="7" data-uid="ent0006" id="cluster_E-Commerce System"><rect fill="none" height="1053" rx="2.5" ry="2.5" style="stroke:#181818;stroke-width:1;" width="265.29" x="210.29" y="7"/><text fill="#000000" font-family="sans-serif" font-size="14" font-weight="bold" lengthAdjust="spacing" textLength="161.8271" x="262.0214" y="21.9951">E-Commerce System</text></g><g class="entity" data-entity="Create Account" data-source-line="9" data-uid="ent0007" id="entity_Create Account"><ellipse cx="342.9445" cy="408.9989" fill="#F1F1F1" rx="75.7945" ry="17.5589" style="stroke:#181818;stroke-width:0.5;"/><text fill="#000000" font-family="sans-serif" font-size="14" lengthAdjust="spacing" textLength="108.0488" x="285.9201" y="412.7465">Create Account</text></g><g class="entity" data-entity="Login" data-source-line="10" data-uid="ent0009" id="entity_Login"><ellipse cx="342.9441" cy="475.9957" fill="#F1F1F1" rx="38.4641" ry="14.5557" style="stroke:#181818;stroke-width:0.5;"/><text fill="#000000" font-family="sans-serif" font-size="14" lengthAdjust="spacing" textLength="38.0146" x="322.07" y="479.4506">Login</text></g><g class="entity" data-entity="Search for Items" data-source-line="11" data-uid="ent0011" id="entity_Search for Items"><ellipse cx="342.9408" cy="204.0002" fill="#F1F1F1" rx="78.8508" ry="18.1702" style="stroke:#181818;stroke-width:0.5;"/><text fill="#000000" font-family="sans-serif" font-size="14" lengthAdjust="spacing" textLength="115.7188" x="282.9711" y="207.5084">Search for Items</text></g><g class="entity" data-entity="Checkout" data-source-line="12" data-uid="ent0013" id="entity_Checkout"><ellipse cx="342.9353" cy="135.9971" fill="#F1F1F1" rx="59.3153" ry="14.7671" style="stroke:#181818;stroke-width:0.5;"/><text fill="#000000" font-family="sans-serif" font-size="14" lengthAdjust="spacing" textLength="65.9941" x="306.9383" y="139.7446">Checkout</text></g><g class="entity" data-entity="Modify Cart" data-source-line="13" data-uid="ent0015" id="entity_Modify Cart"><ellipse cx="342.9363" cy="273.0013" fill="#F1F1F1" rx="65.6563" ry="15.5313" style="stroke:#181818;stroke-width:0.5;"/><text fill="#000000" font-family="sans-serif" font-size="14" lengthAdjust="spacing" textLength="80.6846" x="299.594" y="276.7488">Modify Cart</text></g><g class="entity" data-entity="View Receipt" data-source-line="14" data-uid="ent0017" id="entity_View Receipt"><ellipse cx="342.9413" cy="339.9983" fill="#F1F1F1" rx="69.2913" ry="16.2583" style="stroke:#181818;stroke-width:0.5;"/><text fill="#000000" font-family="sans-serif" font-size="14" lengthAdjust="spacing" textLength="90.8975" x="294.4925" y="343.7458">View Receipt</text></g><g class="entity" data-entity="Promote User to Admin" data-source-line="17" data-uid="ent0020" id="entity_Promote User to Admin"><ellipse cx="342.9432" cy="547.9966" fill="#F1F1F1" rx="99.6332" ry="22.3266" style="stroke:#181818;stroke-width:0.5;"/><text fill="#000000" font-family="sans-serif" font-size="14" lengthAdjust="spacing" textLength="163.249" x="261.3187" y="550.8433">Promote User to Admin</text></g><g class="entity" data-entity="View Sales Report" data-source-line="18" data-uid="ent0022" id="entity_View Sales Report"><ellipse cx="342.9405" cy="624.0001" fill="#F1F1F1" rx="83.4505" ry="19.0901" style="stroke:#181818;stroke-width:0.5;"/><text fill="#000000" font-family="sans-serif" font-size="14" lengthAdjust="spacing" textLength="126.7314" x="279.1332" y="626.9972">View Sales Report</text></g><g class="entity" data-entity="CSV Export Sales Report" data-source-line="19" data-uid="ent0024" id="entity_CSV Export Sales Report"><ellipse cx="342.9392" cy="700.9978" fill="#F1F1F1" rx="103.4892" ry="23.0978" style="stroke:#181818;stroke-width:0.5;"/><text fill="#000000" font-family="sans-serif" font-size="14" lengthAdjust="spacing" textLength="171.7188" x="257.0798" y="703.8445">CSV Export Sales Report</text></g><g class="entity" data-entity="Create New Items for Sale" data-source-line="20" data-uid="ent0026" id="entity_Create New Items for Sale"><ellipse cx="342.9416" cy="783.0043" fill="#F1F1F1" rx="108.9216" ry="24.1843" style="stroke:#181818;stroke-width:0.5;"/><text fill="#000000" font-family="sans-serif" font-size="14" lengthAdjust="spacing" textLength="183.5449" x="251.1691" y="785.851">Create New Items for Sale</text></g><g class="entity" data-entity="Update an Item" data-source-line="21" data-uid="ent0028" id="entity_Update an Item"><ellipse cx="342.9377" cy="859.9975" fill="#F1F1F1" rx="76.1377" ry="17.6275" style="stroke:#181818;stroke-width:0.5;"/><text fill="#000000" font-family="sans-serif" font-size="14" lengthAdjust="spacing" textLength="108.9238" x="285.4758" y="863.7451">Update an Item</text></g><g class="entity" data-entity="Remove Items for Sale" data-source-line="22" data-uid="ent0030" id="entity_Remove Items for Sale"><ellipse cx="342.9399" cy="934.998" fill="#F1F1F1" rx="97.7899" ry="21.958" style="stroke:#181818;stroke-width:0.5;"/><text fill="#000000" font-family="sans-serif" font-size="14" lengthAdjust="spacing" textLength="159.1748" x="263.3525" y="937.8447">Remove Items for Sale</text></g><g class="entity" data-entity="View Receipts for Sold Items" data-source-line="23" data-uid="ent0032" id="entity_View Receipts for Sold Items"><ellipse cx="342.9359" cy="1017.9992" fill="#F1F1F1" rx="116.6459" ry="25.7292" style="stroke:#181818;stroke-width:0.5;"/><text fill="#000000" font-family="sans-serif" font-size="14" lengthAdjust="spacing" textLength="200.1836" x="242.8441" y="1020.8459">View Receipts for Sold Items</text></g><g class="entity" data-entity="Send Receipt via Email" data-source-line="25" data-uid="ent0034" id="entity_Send Receipt via Email"><ellipse cx="342.9404" cy="64.0041" fill="#F1F1F1" rx="98.6704" ry="22.1341" style="stroke:#181818;stroke-width:0.5;"/><text fill="#000000" font-family="sans-serif" font-size="14" lengthAdjust="spacing" textLength="161.123" x="262.3789" y="66.8508">Send Receipt via Email</text></g><!--entity User--><g class="entity" data-entity="User" data-source-line="2" data-uid="ent0002" id="entity_User"><ellipse cx="82.1451" cy="277.35" fill="#F1F1F1" rx="8" ry="8" style="stroke:#181818;stroke-width:0.5;"/><path d="M82.1451,285.35 L82.1451,312.35 M69.1451,293.35 L95.1451,293.35 M82.1451,312.35 L69.1451,327.35 M82.1451,312.35 L95.1451,327.35" fill="none" style="stroke:#181818;stroke-width:0.5;"/><text fill="#000000" font-family="sans-serif" font-size="14" lengthAdjust="spacing" textLength="31.9102" x="66.19" y="341.8451">User</text></g><!--entity Admin--><g class="entity" data-entity="Admin" data-source-line="3" data-uid="ent0003" id="entity_Admin"><ellipse cx="82.1421" cy="732.35" fill="#F1F1F1" rx="8" ry="8" style="stroke:#181818;stroke-width:0.5;"/><path d="M82.1421,740.35 L82.1421,767.35 M69.1421,748.35 L95.1421,748.35 M82.1421,767.35 L69.1421,782.35 M82.1421,767.35 L95.1421,782.35" fill="none" style="stroke:#181818;stroke-width:0.5;"/><text fill="#000000" font-family="sans-serif" font-size="14" lengthAdjust="spacing" textLength="44.8643" x="59.71" y="796.8451">Admin</text></g><!--entity Bank--><g class="entity" data-entity="Bank" data-source-line="4" data-uid="ent0004" id="entity_Bank"><ellipse cx="540.162" cy="106.35" fill="#F1F1F1" rx="8" ry="8" style="stroke:#181818;stroke-width:0.5;"/><path d="M540.162,114.35 L540.162,141.35 M527.162,122.35 L553.162,122.35 M540.162,141.35 L527.162,156.35 M540.162,141.35 L553.162,156.35" fill="none" style="stroke:#181818;stroke-width:0.5;"/><text fill="#000000" font-family="sans-serif" font-size="14" lengthAdjust="spacing" textLength="35.1641" x="522.58" y="170.8451">Bank</text></g><!--entity CCP--><g class="entity" data-entity="CCP" data-source-line="5" data-uid="ent0005" id="entity_CCP"><ellipse cx="82.1455" cy="106.35" fill="#F1F1F1" rx="8" ry="8" style="stroke:#181818;stroke-width:0.5;"/><path d="M82.1455,114.35 L82.1455,141.35 M69.1455,122.35 L95.1455,122.35 M82.1455,141.35 L69.1455,156.35 M82.1455,141.35 L95.1455,156.35" fill="none" style="stroke:#181818;stroke-width:0.5;"/><text fill="#000000" font-family="sans-serif" font-size="14" lengthAdjust="spacing" textLength="152.291" x="6" y="170.8451">Credit Card Processor</text></g><!--link User to Create Account--><g class="link" data-entity-1="User" data-entity-2="Create Account" data-source-line="9" data-uid="lnk8" id="link_User_Create Account"><path d="M98.29,317.27 C120.3,331.79 162.83,358.29 202.29,374 C228.07,384.26 251.8862,390.8938 277.2362,396.5938" fill="none" id="User-to-Create Account" style="stroke:#181818;stroke-width:1;"/><polygon fill="#181818" points="283.09,397.91,275.1867,392.0331,278.2118,396.8131,273.4317,399.8382,283.09,397.91" style="stroke:#181818;stroke-width:1;"/></g><!--link User to Login--><g class="link" data-entity-1="User" data-entity-2="Login" data-source-line="10" data-uid="lnk10" id="link_User_Login"><path d="M98.54,333.11 C118.43,364.47 156.06,416.28 202.29,444 C233.65,462.8 269.0749,469.9142 298.6349,473.1142" fill="none" id="User-to-Login" style="stroke:#181818;stroke-width:1;"/><polygon fill="#181818" points="304.6,473.76,296.0828,468.8146,299.629,473.2219,295.2218,476.7681,304.6,473.76" style="stroke:#181818;stroke-width:1;"/></g><!--link User to Search for Items--><g class="link" data-entity-1="User" data-entity-2="Search for Items" data-source-line="11" data-uid="lnk12" id="link_User_Search for Items"><path d="M98.3,296.76 C120.33,282.29 162.88,255.85 202.29,240 C227.73,229.77 251.1079,223.0775 276.2279,217.1975" fill="none" id="User-to-Search for Items" style="stroke:#181818;stroke-width:1;"/><polygon fill="#181818" points="282.07,215.83,272.3952,213.9865,277.2016,216.9696,274.2185,221.776,282.07,215.83" style="stroke:#181818;stroke-width:1;"/></g><!--link User to Checkout--><g class="link" data-entity-1="User" data-entity-2="Checkout" data-source-line="12" data-uid="lnk14" id="link_User_Checkout"><path d="M98.45,280.5 C118.24,248.69 155.78,196.12 202.29,168 C227.51,152.75 253.3813,145.6823 280.2513,141.5023" fill="none" id="User-to-Checkout" style="stroke:#181818;stroke-width:1;"/><polygon fill="#181818" points="286.18,140.58,276.6721,138.011,281.2394,141.3486,277.9018,145.9159,286.18,140.58" style="stroke:#181818;stroke-width:1;"/></g><!--link User to Modify Cart--><g class="link" data-entity-1="User" data-entity-2="Modify Cart" data-source-line="13" data-uid="lnk16" id="link_User_Modify Cart"><path d="M98.56,304.97 C134.36,300.27 218.6911,289.1917 278.6611,281.3117" fill="none" id="User-to-Modify Cart" style="stroke:#181818;stroke-width:1;"/><polygon fill="#181818" points="284.61,280.53,275.1656,277.7366,279.6526,281.1814,276.2078,285.6684,284.61,280.53" style="stroke:#181818;stroke-width:1;"/></g><!--link User to View Receipt--><g class="link" data-entity-1="User" data-entity-2="View Receipt" data-source-line="14" data-uid="lnk18" id="link_User_View Receipt"><path d="M98.56,308.97 C133.71,313.45 215.4182,323.8712 275.3482,331.5112" fill="none" id="User-to-View Receipt" style="stroke:#181818;stroke-width:1;"/><polygon fill="#181818" points="281.3,332.27,272.8781,327.164,276.3401,331.6377,271.8664,335.0998,281.3,332.27" style="stroke:#181818;stroke-width:1;"/></g><!--link Admin to Login--><g class="link" data-entity-1="Admin" data-entity-2="Login" data-source-line="16" data-uid="lnk19" id="link_Admin_Login"><path d="M90.16,723.62 C102.52,667.4 133.67,563.35 202.29,508 C231.14,484.73 267.7205,478.0649 298.2705,476.2549" fill="none" id="Admin-to-Login" style="stroke:#181818;stroke-width:1;"/><polygon fill="#181818" points="304.26,475.9,295.0392,472.4393,299.2688,476.1957,295.5123,480.4253,304.26,475.9" style="stroke:#181818;stroke-width:1;"/></g><!--link Admin to Promote User to Admin--><g class="link" data-entity-1="Admin" data-entity-2="Promote User to Admin" data-source-line="17" data-uid="lnk21" id="link_Admin_Promote User to Admin"><path d="M99.45,723.7 C118.41,683.71 153.48,622.05 202.29,587 C219.26,574.81 234.1411,568.0791 254.2911,562.3191" fill="none" id="Admin-to-Promote User to Admin" style="stroke:#181818;stroke-width:1;"/><polygon fill="#181818" points="260.06,560.67,250.3072,559.2977,255.2526,562.0442,252.506,566.9896,260.06,560.67" style="stroke:#181818;stroke-width:1;"/></g><!--link Admin to View Sales Report--><g class="link" data-entity-1="Admin" data-entity-2="View Sales Report" data-source-line="18" data-uid="lnk23" id="link_Admin_View Sales Report"><path d="M104.96,737.78 C127.23,714.5 163.89,680 202.29,660 C224.39,648.49 244.5561,641.8498 268.1061,636.3698" fill="none" id="Admin-to-View Sales Report" style="stroke:#181818;stroke-width:1;"/><polygon fill="#181818" points="273.95,635.01,264.2776,633.1539,269.0801,636.1432,266.0908,640.9457,273.95,635.01" style="stroke:#181818;stroke-width:1;"/></g><!--link Admin to CSV Export Sales Report--><g class="link" data-entity-1="Admin" data-entity-2="CSV Export Sales Report" data-source-line="19" data-uid="lnk25" id="link_Admin_CSV Export Sales Report"><path d="M104.76,756.9 C140.78,748.41 208.7801,732.3867 264.5601,719.2367" fill="none" id="Admin-to-CSV Export Sales Report" style="stroke:#181818;stroke-width:1;"/><polygon fill="#181818" points="270.4,717.86,260.7223,716.0318,265.5334,719.0073,262.558,723.8184,270.4,717.86" style="stroke:#181818;stroke-width:1;"/></g><!--link Admin to Create New Items for Sale--><g class="link" data-entity-1="Admin" data-entity-2="Create New Items for Sale" data-source-line="20" data-uid="lnk27" id="link_Admin_Create New Items for Sale"><path d="M104.76,763.75 C134.53,766.17 184.1297,770.1944 234.0097,774.2444" fill="none" id="Admin-to-Create New Items for Sale" style="stroke:#181818;stroke-width:1;"/><polygon fill="#181818" points="239.99,774.73,231.3432,770.0148,235.0064,774.3254,230.6958,777.9885,239.99,774.73" style="stroke:#181818;stroke-width:1;"/></g><!--link Admin to Update an Item--><g class="link" data-entity-1="Admin" data-entity-2="Update an Item" data-source-line="21" data-uid="lnk29" id="link_Admin_Update an Item"><path d="M104.79,775.5 C128.11,789.54 166.68,811.35 202.29,825 C228.31,834.97 252.3091,841.5709 277.7091,847.3409" fill="none" id="Admin-to-Update an Item" style="stroke:#181818;stroke-width:1;"/><polygon fill="#181818" points="283.56,848.67,275.6697,842.7757,278.6842,847.5624,273.8975,850.5769,283.56,848.67" style="stroke:#181818;stroke-width:1;"/></g><!--link Admin to Remove Items for Sale--><g class="link" data-entity-1="Admin" data-entity-2="Remove Items for Sale" data-source-line="22" data-uid="lnk31" id="link_Admin_Remove Items for Sale"><path d="M104.93,795.57 C126.26,825.84 161.44,869.41 202.29,895 C221.31,906.92 238.2091,913.7733 259.6891,919.7433" fill="none" id="Admin-to-Remove Items for Sale" style="stroke:#181818;stroke-width:1;"/><polygon fill="#181818" points="265.47,921.35,257.8698,915.086,260.6526,920.0111,255.7276,922.7939,265.47,921.35" style="stroke:#181818;stroke-width:1;"/></g><!--link Admin to View Receipts for Sold Items--><g class="link" data-entity-1="Admin" data-entity-2="View Receipts for Sold Items" data-source-line="23" data-uid="lnk33" id="link_Admin_View Receipts for Sold Items"><path d="M94.86,800.3 C111.31,847.79 145.75,928.09 202.29,974 C217.09,986.02 229.5362,992.7898 247.7562,999.1598" fill="none" id="Admin-to-View Receipts for Sold Items" style="stroke:#181818;stroke-width:1;"/><polygon fill="#181818" points="253.42,1001.14,246.2444,994.3939,248.7001,999.4899,243.6041,1001.9456,253.42,1001.14" style="stroke:#181818;stroke-width:1;"/><text fill="#000000" font-family="sans-serif" font-size="13" lengthAdjust="spacing" textLength="4.1323" x="189.29" y="961.0669">&#160;</text></g><!--link CCP to Checkout--><g class="link" data-entity-1="CCP" data-entity-2="Checkout" data-source-line="26" data-uid="lnk35" id="link_CCP_Checkout"><path d="M158.69,136 C198.38,136 240.29,136 277.17,136" fill="none" id="CCP-to-Checkout" style="stroke:#181818;stroke-width:1;"/><polygon fill="#181818" points="283.17,136,274.17,132,278.17,136,274.17,140,283.17,136" style="stroke:#181818;stroke-width:1;"/></g><!--link Checkout to Bank--><g class="link" data-entity-1="Checkout" data-entity-2="Bank" data-source-line="27" data-uid="lnk36" id="link_Checkout_Bank"><path d="M402.51,136 C443.62,136 489.79,136 516.19,136" fill="none" id="Checkout-to-Bank" style="stroke:#181818;stroke-width:1;"/><polygon fill="#181818" points="522.19,136,513.19,132,517.19,136,513.19,140,522.19,136" style="stroke:#181818;stroke-width:1;"/></g><!--SRC=[XP91QiCm44NtFiNWLRlm1ReefCABGXj2JB8NqjWMiJH6KjA6qhjNKcnYh4Ay4FByxpVZBmtOUl04LdMz1wai2g_855nuid1mQAVjHcerbz-uEKtRabcKoWFZLiBEaa3do9R07J2sAuh8uwOR4CgwOgGrMe7GN9r7NS9F0U59Ism5LVKAJu78FS9623eR_xnIFwXJPbria5lHGni6UWzWjzPPZ-94vmpsILArrpXy9XqLVi4U1QfnqjAIOiWcMLH31fh2-8aKWarIvahqXW_eGe-HvlOB1skEK7z7wO7lbjOsyDAlfn3Y5vdpCChev2OPCtcFcYxu2BACPRBH8AVKuGNAyfvLE1OZPpDS58TQSpNScE5s_7SszzUaffls-mS0]--></g></svg>